<?xml version="1.0" encoding="UTF-8" standalone="no"?>
<!-- Created with Inkscape (http://www.inkscape.org/) -->

<svg
   width="210mm"
   height="297mm"
   viewBox="0 0 210 297"
   version="1.1"
   id="svg1"
   xml:space="preserve"
   xmlns:inkscape="http://www.inkscape.org/namespaces/inkscape"
   xmlns:sodipodi="http://sodipodi.sourceforge.net/DTD/sodipodi-0.dtd"
   xmlns="http://www.w3.org/2000/svg"
   xmlns:svg="http://www.w3.org/2000/svg"><sodipodi:namedview
     id="namedview1"
     pagecolor="#ffffff"
     bordercolor="#000000"
     borderopacity="0.25"
     inkscape:showpageshadow="2"
     inkscape:pageopacity="0.0"
     inkscape:pagecheckerboard="0"
     inkscape:deskcolor="#d1d1d1"
     inkscape:document-units="mm" /><defs
     id="defs1" /><g
     inkscape:label="Capa 1"
     inkscape:groupmode="layer"
     id="layer1"><path
       style="fill:#800080;stroke-width:0.443392"
       d="m 67.406803,208.65468 c -11.343655,-2.1199 -20.924876,-9.26198 -25.986191,-19.37075 -3.054852,-6.10135 -3.896369,-10.09055 -3.661593,-17.35775 0.222778,-6.89585 1.244106,-10.60004 4.503009,-16.33171 1.768972,-3.11121 7.938184,-9.92057 10.488732,-11.5771 0.800471,-0.51988 1.121715,-1.29518 1.439072,-3.47306 1.78524,-12.25144 8.989451,-22.24067 19.842775,-27.51366 5.599753,-2.72059 10.063135,-3.80379 15.842863,-3.84485 2.577157,-0.0183 5.890633,0.22457 7.363292,0.53975 11.477458,2.45637 21.424808,10.26287 26.129548,20.50598 1.36112,2.96344 3.10048,9.14271 3.10048,11.01484 0,0.88783 1.12639,2.25174 4.85096,5.87392 5.57368,5.42044 7.89216,8.93216 10.01356,15.16716 1.32729,3.90102 1.3909,4.41121 1.38861,11.13697 -0.002,6.73299 -0.0636,7.22027 -1.36911,10.88029 -0.75167,2.1074 -2.22898,5.27929 -3.28291,7.04867 -2.59886,4.36311 -8.99056,10.56786 -13.38615,12.99461 -9.30274,5.13594 -19.82735,6.04639 -30.030418,2.59781 l -4.480792,-1.51449 -3.160787,1.23331 c -6.141005,2.39614 -13.457736,3.13885 -19.60495,1.99006 z m 13.262727,-7.47191 c 8.751682,-1.83042 16.916512,-8.84836 20.25009,-17.40562 1.72187,-4.42 1.73577,-4.26783 -0.51327,-5.61563 l -2.023728,-1.21276 -0.01408,-3.37817 c -0.0078,-1.858 0.101262,-3.67497 0.242268,-4.03771 0.200511,-0.51584 1.48895,0.0606 5.91295,2.64515 3.1111,1.81759 5.70181,3.34881 5.75709,3.40272 0.26369,0.25709 -0.90248,6.09177 -1.72625,8.63694 -1.59389,4.92459 -5.83282,11.66213 -9.258773,14.7163 -1.30552,1.16384 -1.192136,1.47368 0.732083,2.00053 10.15533,2.78057 23.27974,-1.69678 29.76801,-10.15525 4.4242,-5.7676 6.26304,-11.69594 5.92972,-19.11702 -0.32721,-7.28511 -2.94587,-13.22519 -8.14117,-18.46715 -3.26443,-3.29375 -6.88643,-5.52204 -11.60705,-7.14078 -3.13088,-1.07361 -4.21894,-1.22258 -8.92092,-1.22143 -2.94531,7.4e-4 -6.20859,0.24663 -7.251717,0.54647 l -1.896605,0.54516 v 2.37514 2.37514 l -3.448817,1.90317 c -1.896845,1.04673 -3.603793,1.96923 -3.793208,2.05 -0.189422,0.0808 -0.344398,-2.9495 -0.344398,-6.73392 v -6.88076 l 2.119736,-0.90469 c 6.554834,-2.79755 15.740549,-3.59056 22.530289,-1.94507 1.89897,0.46021 3.56411,0.72674 3.70031,0.59228 0.1362,-0.13445 -0.19146,-1.497 -0.72813,-3.02788 -2.40371,-6.85673 -7.59161,-12.75527 -13.89955,-15.80354 -4.926367,-2.38063 -8.09095,-3.10958 -13.499523,-3.10958 -8.5403,0 -14.349051,2.36547 -20.314657,8.27264 -6.351117,6.28891 -8.704985,12.27162 -8.358223,21.24365 0.286801,7.42057 2.316526,12.65574 6.99068,18.0307 l 1.696553,1.95093 1.973394,-1.14168 c 1.208864,-0.69936 2.227596,-1.0128 2.629534,-0.80906 0.360878,0.18293 2.029293,1.07723 3.707589,1.98733 l 3.051451,1.65472 -1.489539,0.98974 c -0.819247,0.54434 -3.471502,2.11547 -5.8939,3.49138 -3.705607,2.10477 -4.519799,2.41437 -5.13199,1.95145 -7.078651,-5.35274 -11.351455,-11.21018 -13.934032,-19.1017 l -0.987236,-3.01666 -1.945971,2.12185 c -2.537902,2.76728 -4.73378,6.72348 -6.013552,10.8343 -0.811571,2.60689 -1.027256,4.32658 -1.022179,8.15002 0.0072,5.44268 0.680114,8.27116 3.085439,12.96967 5.926699,11.57708 18.882253,17.54927 32.081307,14.78868 z"
       id="path2" /></g></svg>
