<?xml version="1.0" encoding="UTF-8" standalone="no"?>
<!-- Created with Inkscape (http://www.inkscape.org/) -->

<svg
   width="210mm"
   height="297mm"
   viewBox="0 0 210 297"
   version="1.1"
   id="svg1"
   xml:space="preserve"
   inkscape:export-filename="printables.svg"
   inkscape:export-xdpi="96.041077"
   inkscape:export-ydpi="96.041077"
   xmlns:inkscape="http://www.inkscape.org/namespaces/inkscape"
   xmlns:sodipodi="http://sodipodi.sourceforge.net/DTD/sodipodi-0.dtd"
   xmlns="http://www.w3.org/2000/svg"
   xmlns:svg="http://www.w3.org/2000/svg"><sodipodi:namedview
     id="namedview1"
     pagecolor="#ffffff"
     bordercolor="#000000"
     borderopacity="0.25"
     inkscape:showpageshadow="2"
     inkscape:pageopacity="0.0"
     inkscape:pagecheckerboard="0"
     inkscape:deskcolor="#d1d1d1"
     inkscape:document-units="mm" /><defs
     id="defs1" /><g
     inkscape:label="Capa 1"
     inkscape:groupmode="layer"
     id="layer1"><path
       style="fill:#ff6600;fill-opacity:1;stroke-width:1.04212"
       d="m 84.196201,175.37056 v -19.70743 l -17.45562,-10.1473 c -9.60063,-5.58111 -17.56847,-10.22961 -17.7062,-10.33061 -0.42421,-0.31096 32.9242,-19.31263 33.80889,-19.26404 0.45764,0.0241 8.33542,4.41052 17.506199,9.74569 l 16.67408,9.69988 v 20.59397 20.59409 l -15.95063,9.26163 c -8.772649,5.09375 -16.158939,9.26143 -16.413439,9.26143 -0.25494,0 -0.46328,-8.86825 -0.46328,-19.70731 z"
       id="path6" /><path
       style="fill:#ff6600;fill-opacity:1;stroke-width:1.04212"
       d="m 47.721551,197.65651 v -18.26427 l 3.38708,1.74032 c 3.40332,1.74892 28.12209,15.98828 28.71516,16.54174 0.34501,0.32178 -30.65201,18.24623 -31.55294,18.24623 -0.30201,0 -0.5493,-8.21876 -0.5493,-18.26402 z"
       id="path7" /></g></svg>
