<?xml version="1.0" encoding="UTF-8" standalone="no"?>
<!-- Created with Inkscape (http://www.inkscape.org/) -->

<svg
   width="210mm"
   height="297mm"
   viewBox="0 0 210 297"
   version="1.1"
   id="svg1"
   xml:space="preserve"
   inkscape:export-filename="thingiverse.svg"
   inkscape:export-xdpi="96"
   inkscape:export-ydpi="96"
   sodipodi:docname="thingiverse.svg"
   xmlns:inkscape="http://www.inkscape.org/namespaces/inkscape"
   xmlns:sodipodi="http://sodipodi.sourceforge.net/DTD/sodipodi-0.dtd"
   xmlns="http://www.w3.org/2000/svg"
   xmlns:svg="http://www.w3.org/2000/svg"><sodipodi:namedview
     id="namedview1"
     pagecolor="#ffffff"
     bordercolor="#000000"
     borderopacity="0.25"
     inkscape:showpageshadow="2"
     inkscape:pageopacity="0.0"
     inkscape:pagecheckerboard="0"
     inkscape:deskcolor="#d1d1d1"
     inkscape:document-units="mm" /><defs
     id="defs1" /><g
     inkscape:label="Capa 1"
     inkscape:groupmode="layer"
     id="layer1"><path
       style="fill:#4d4dff;fill-opacity:1;stroke-width:0.441406"
       d="m 82.831871,212.40121 c -15.940955,-2.88468 -29.18949,-12.81782 -36.471875,-27.34491 -3.519038,-7.01986 -5.159398,-14.05934 -5.159398,-22.14113 0,-19.96552 12.093247,-38.14599 30.615634,-46.02623 10.851091,-4.61652 23.737036,-5.15329 35.099328,-1.46205 9.94425,3.23055 19.22514,10.09142 25.47109,18.82939 2.84891,3.9856 6.26509,11.3404 7.65073,16.47158 1.0656,3.946 1.17079,5.05668 1.16283,12.27701 -0.008,7.24293 -0.11386,8.32495 -1.20827,12.3488 -5.25116,19.30705 -20.83829,33.65383 -40.231313,37.02992 -4.660979,0.81142 -12.497078,0.81957 -16.928756,0.0176 z M 99.075069,187.3717 c 5.96e-4,-8.30787 0.131719,-19.71949 0.291459,-25.35914 l 0.29043,-10.25392 h 10.532212 10.53221 v -7.718 -7.718 H 91.342869 61.964358 v 7.718 7.718 h 10.602771 10.602769 v 7.42521 c 0,4.08386 0.131733,15.49548 0.29274,25.35915 l 0.292738,17.93393 h 7.659341 7.659338 z"
       id="path5" /></g></svg>
